<svg xmlns="http://www.w3.org/2000/svg" viewBox="0 0 118.06 184.25"><defs><style>.cls-1{fill:#848238}.cls-2{fill:#e2e271}.cls-3{fill:#3fff00}.cls-4{fill:#2d0706}</style></defs><g id="Слой_2" data-name="Слой 2"><g id="Слой_1-2" data-name="Слой 1"><path class="cls-1" d="M62.37 119.25c0 26 0 37-9 45s-16 0-16 6-12 19-15 11-5-19 0-23a10.49 10.49 0 0110-2s11-4 12-24 18-13 18-13z"/><path class="cls-2" d="M92.78 73.93c-.62-4 2.16-6.75 6.15-6.15s7.63 2.13 11.42 3.32a44.15 44.15 0 10-11.88 12.27 15.15 15.15 0 01-5.69-9.44z"/><path class="cls-1" d="M59.46 94.1c-30.89 12.28-27.16 27-27.16 27s3 4 6.22 1.55S52.08 96 63.71 99.67s-4.25-5.57-4.25-5.57z"/><path class="cls-2" d="M73.37 132.25h-27l13-59 14-3v62z"/><path class="cls-2" d="M74.13 119.33s27.42 5.6 31.64 14.71-1 26.17 3.16 31.86 8.44 3.41 8.44 11.38-23.2 9.11-26.37 3.42 1-28.46-4.22-36.42-27.42-4.55-27.42-14.8 14.77-10.15 14.77-10.15zm-6.76-13.08c32 9 38-5 38-5s0-5-4-5-27 13-34 3 0 7 0 7z"/><path class="cls-3" d="M52.37 86.25s21 10.7 21 9.85 1.27 14.26 8 20.15a63.48 63.48 0 0015 10s18 6 9 13-21 12-21 12-10-11-16-12-5 13-5 13-20 4-25-7c0 0 20.04-52 14-59z"/><path class="cls-4" d="M98.37 8.25a107.47 107.47 0 010 15.25c-.94 13.29-4.89 30.37-19 29.75-23-1-35 6-39 12s-6 12-11 0-14.67-90.49 69-57z"/><path class="cls-4" d="M97.77 5.84c28.6 9.41 18.6 26.41 18.6 26.41s4-9-6-6-17 2-21-11 8.4-9.41 8.4-9.41zM37.83 19.69S33.17 1 20.08 4 4.33 9.35 0 22.7l6.77-6.57a11.74 11.74 0 01-.2 13.34c-4.84 7.05 9.43 3.38 11.86-6.33s3.89 1 3.89 1l5.55-10s8.26 4.1 7.06 9 1.2-4.86 1.2-4.86z"/><ellipse cx="108.37" cy="47.25" rx="3" ry="9"/><ellipse cx="108.87" cy="46.25" rx="1.5" ry="3" fill="#f9f9f9"/><path class="cls-3" d="M40.37 12.25c0 3.87-4.13 13-8 13s-7-2.13-7-6 4.14-14 8-14a7 7 0 017 7z"/></g></g></svg>