<svg xmlns="http://www.w3.org/2000/svg" viewBox="0 0 118.06 180.49"><defs><style>.cls-1{fill:#e2e271}.cls-2{fill:#848238}.cls-3{fill:#3fff00}.cls-4{fill:#2d0706}</style></defs><g id="Слой_2" data-name="Слой 2"><g id="Слой_1-2" data-name="Слой 1"><circle class="cls-1" cx="70.37" cy="44.25" r="44"/><path class="cls-2" d="M60.07 89.42c-33.18 2-34.24 17.22-34.24 17.22s1.64 4.73 5.42 3.41S52.47 88.89 62.37 96s-2.3-6.58-2.3-6.58z"/><path class="cls-1" d="M70.37 129.25h-27l13-59 14-3v62z"/><path class="cls-2" d="M49.34 110.4c20.4 16.12 29 22.94 29.73 35s-9.92 12.56-5.21 16.28 7.46 21.19-.67 18.58-18-7.85-18-14.26a10.48 10.48 0 014.63-9.08s3.68-11.11-11.39-24.3.91-22.22.91-22.22z"/><path class="cls-1" d="M69.83 106.63S87.55 128.29 85.07 138s-17.34 19.64-17.67 26.72 4.39 8-.64 14.15-23.74-7.59-22.6-14 18.78-21.4 19.73-30.9S45.5 113.12 52 105.18s17.83 1.45 17.83 1.45zm-6.27-12.22c20.76 26 33.79 18.09 33.79 18.09s2.92-4.06-.33-6.39-29.52-5.18-29.38-17.38-4.08 5.68-4.08 5.68z"/><path class="cls-3" d="M52.85 86.25l17.52 6s2 14.72 6 18 12 19 12 19-11 18-26 16-22-7-22-7a9.39 9.39 0 003-9c-1-6-6.83-4.82 0-20 9-20 9.48-23 9.48-23z"/><path class="cls-4" d="M98.37 8.25a107.47 107.47 0 010 15.25c-.94 13.29-4.89 30.37-19 29.75-23-1-35 6-39 12s-6 12-11 0-14.67-90.49 69-57z"/><path class="cls-4" d="M97.77 5.84c28.6 9.41 18.6 26.41 18.6 26.41s4-9-6-6-17 2-21-11 8.4-9.41 8.4-9.41zM37.83 19.69S33.17 1 20.08 4 4.33 9.35 0 22.7l6.77-6.57a11.74 11.74 0 01-.2 13.34c-4.84 7.05 9.43 3.38 11.86-6.33s3.89 1 3.89 1l5.55-10s8.26 4.1 7.06 9 1.2-4.86 1.2-4.86z"/><ellipse cx="108.37" cy="47.25" rx="3" ry="9"/><ellipse cx="108.87" cy="46.25" rx="1.5" ry="3" fill="#f9f9f9"/><path class="cls-3" d="M40.37 12.25c0 3.87-4.13 13-8 13s-7-2.13-7-6 4.14-14 8-14a7 7 0 017 7z"/></g></g></svg>