<svg xmlns="http://www.w3.org/2000/svg" viewBox="0 0 184.4 342.63"><defs><style>.cls-1{fill:#e2bf5a}.cls-2{fill:#ef0707}.cls-3{fill:#2d0706}.cls-4{fill:#f9f9f9}.cls-6{fill:#020000}</style></defs><g id="Слой_2" data-name="Слой 2"><g id="Слой_1-2" data-name="Слой 1"><path class="cls-1" d="M65.43 170.35s-18.11-18.52-26.81-17.43-18.26 13.31-24.52 12.77-6.78-4.89-12.51-1.09 5.38 22.27 11.09 22 19.9-14.39 28.32-14.12 17.34 19 24.7 14.13-.27-16.26-.27-16.26zM119 166s18.11-18.51 26.81-17.43 18.27 13.31 24.52 12.77 6.78-4.89 12.51-1.09-5.37 22.27-11.09 22-19.89-14.39-28.32-14.12-17.35 19-24.71 14.13S119 166 119 166z"/><path class="cls-1" d="M122.7 255.45h-65l13-106h40l12 106z"/><path class="cls-1" d="M98.6 250.45s-7.9 67 .1 80 63 17 63 5-12-25-28-25c0 0-1-40-6-60s-27.2-19-29.1 0zm-18.44-1.37s7.91 67-.09 80-63 17-63 5 12-25 28-25c0 0 1-40 6-60s27.19-19 29.09 0z"/><path class="cls-2" d="M67.7 170.45s22.78 10.26 45.39.13c0 0 22.61 96.87 25.61 100.87s-82 12-99 3z"/><path class="cls-1" d="M96.45 73.86c-3 4-7.86 3.73-10.9-.52s-5-9-7.29-13.51h-.07A51.21 51.21 0 0051 73.59c-21.35 20.71-21 55.93.69 78.67s56.66 24.38 78 3.67S150.77 100 129 77.25a58.64 58.64 0 00-29.34-16.77c.5 4.74-.27 9.43-3.21 13.38z"/><path class="cls-3" d="M115.81 52.39a63.8 63.8 0 010 13.3c-1.22 11.59-6.31 26.48-24.5 26-29.66-.92-45.14 5.18-50.31 10.41s-7.73 10.47-14.18 0-18.9-78.92 88.99-49.71zM136.46 70c40.61 30.4 15.65 53.78 15.65 53.78s11.15-13-6.39-13.12-28.17-5.35-27.65-29.19S136.46 70 136.46 70z"/><path class="cls-3" d="M81.39 52s28.72 17.84 32.19-.54S115.2 27.11 99.1 5.73l5.23 15.74S92.88 18.9 85.85 4.74s-10.18 6.49 2 21.2-3.59 3.19-3.59 3.19L94.9 47.69s-10.5 4.23-16.57-3.13l6.07 7.36z"/><ellipse cx="66.82" cy="113.24" rx="3.87" ry="11.06"/><ellipse class="cls-4" cx="67.46" cy="112.01" rx="1.93" ry="3.69"/><path class="cls-2" d="M112.9 52.83c-4.41 1.68-16.72.63-18.48-4.07s-.76-9.43 3.66-11.11 17.86-1.06 19.62 3.64a8.87 8.87 0 01-4.8 11.54z"/><ellipse cx="114.38" cy="112.94" rx="3.87" ry="11.06"/><ellipse class="cls-4" cx="115.02" cy="111.72" rx="1.93" ry="3.69"/><path class="cls-3" d="M100.66 52.61a104.32 104.32 0 000 13.3c.73 11.59 3.82 26.48 14.83 26 18-.88 27.31 5.23 30.43 10.46s4.68 10.47 8.59 0S166 23.4 100.66 52.61z"/><path fill="#afaeae" d="M12.7 140.45h159v107h-159z"/><path class="cls-6" d="M19.48 213.45a6.28 6.28 0 00.13 2.59 6.38 6.38 0 001 2 6.85 6.85 0 001.89 1.75 6.16 6.16 0 002.45.8 1.44 1.44 0 001.06-.44 1.5 1.5 0 000-2.12 1.77 1.77 0 00-1.06-.44h-.07l.4.06a4.32 4.32 0 01-.71-.17l-.17-.06c-.24-.09.06.05.13.06a2 2 0 01-.33-.16l-.31-.19c-.12-.07-.42-.34 0 0-.18-.16-.37-.31-.54-.49l-.24-.27c-.13-.16.09.1.1.13a1.18 1.18 0 00-.13-.18 4.48 4.48 0 01-.35-.6s-.05-.11-.08-.16c-.12-.25.11.28.05.12a3.4 3.4 0 01-.12-.34 4.67 4.67 0 01-.17-.74l.06.4a4.41 4.41 0 010-1.09l-.06.4v-.07a1.61 1.61 0 00-.15-1.16 1.53 1.53 0 00-.89-.69 1.56 1.56 0 00-1.16.15 1.48 1.48 0 00-.69.9z"/><path class="cls-6" d="M32.05 172.55c-2.15 2.09-3 5-3.48 7.82-.68 3.73-1.28 7.47-1.91 11.21l-3.85 22.62c-.32 1.89 2.57 2.7 2.89.8l3.68-21.65 1.83-10.7c.47-2.79.83-5.91 3-8 1.39-1.35-.73-3.47-2.12-2.13z"/><path class="cls-6" d="M31.5 173.32a174.83 174.83 0 007.55 37.05c.59 1.83 3.49 1 2.9-.79a170.76 170.76 0 01-7.45-36.26c-.18-1.91-3.18-1.93-3 0zm-10.81 42.84a38.91 38.91 0 0013 1.63c4.74 0 9.47-.15 14.21-.22 1.93 0 1.93-3 0-3-4.58.07-9.17.17-13.75.21-4.29.05-8.58-.1-12.67-1.51-1.83-.63-2.62 2.27-.8 2.89z"/><path class="cls-6" d="M49.35 214.43l-4.06 6.47a1.5 1.5 0 102.59 1.51l4.06-6.41a1.51 1.51 0 00-.54-2 1.53 1.53 0 00-2 .53zm3.26-21.28c-2.36 4.36-4.74 9.54-2.17 14.37 2.27 4.26 8 5 11.82 2.52s5.71-7.64 5.39-12.17c-.29-4.08-2.42-8.74-6.74-9.85-4.12-1.05-9.08 1.44-9.36 6-.12 1.92 2.88 1.92 3 0 .14-2.38 3.1-3.49 5.14-3.18 3 .47 4.58 3.81 4.91 6.53.41 3.33-.53 7.16-3.07 9.48-2.2 2-6.28 2.47-8.15-.24-2.59-3.75 0-8.49 1.82-11.92.92-1.7-1.67-3.22-2.59-1.52zm25.64-2.81a71.34 71.34 0 00-4.74 19 1.5 1.5 0 003 0 68.83 68.83 0 014.63-18.18 1.5 1.5 0 00-1-1.84 1.54 1.54 0 00-1.85 1.05z"/><path class="cls-6" d="M79 189.53c-.89 3.8.59 7.52 2.7 10.64 2 2.92 4.59 5.56 5.79 9 .64 1.8 3.54 1 2.89-.8-1.16-3.27-3.34-5.87-5.36-8.64s-3.92-5.94-3.13-9.35c.44-1.88-2.45-2.68-2.89-.8zm17.63-.69c-1.28 5-2.39 10.39 0 15.21 1.88 3.84 5.83 6.52 10.19 5.72 4.06-.73 7-4.4 8.74-7.88 2.11-4.21 3.51-9.14.32-13.18-3.61-4.58-9.68-4.92-15.06-4.66-1.92.09-1.93 3.09 0 3 3.84-.19 8.23-.31 11.41 2.2a6.62 6.62 0 012.58 4.12c.28 1.95-.54 4-1.29 5.81-1.2 2.84-3.16 6.1-6.16 7.33s-6.16-.53-7.75-3.25c-2.43-4.15-1.18-9.27 0-13.62a1.5 1.5 0 00-2.89-.8zm27.93-2.54v20.07c0 1.64-.44 4.06 1.17 5.12s3.28.08 4.58-.9a23.45 23.45 0 008.7-12.84c.92-3.52.72-7.91 3.36-10.73l-2.56-1.02q0 10.89.1 21.79a1.5 1.5 0 003 0q-.06-10.89-.1-21.79a1.52 1.52 0 00-2.57-1.06c-2.79 3-3.05 7-3.84 10.79a20.73 20.73 0 01-5.25 10.18 20.23 20.23 0 01-2.22 2 7.09 7.09 0 01-1.19.84 1.41 1.41 0 01-.52.22c.34.3.45.24.34-.19a6.43 6.43 0 000-1.91V186.3a1.5 1.5 0 00-3 0zm6.44-5.47c2.44-1 5.07-2.52 6.33-5a5.3 5.3 0 00-1.37-6.66c-1.8-1.43-4.09-1.78-6.09-2.81s-3.08-3.25-1.8-5.34c1-1.65-1.59-3.16-2.59-1.51a6.66 6.66 0 00.33 7.37c1.39 1.85 3.62 2.59 5.71 3.36 1.44.52 3.67 1.32 3.47 3.24-.22 2.16-3 3.69-4.79 4.4a1.56 1.56 0 00-1.05 1.85 1.52 1.52 0 001.85 1.05z"/></g></g></svg>