<svg xmlns="http://www.w3.org/2000/svg" viewBox="0 0 183.07 99.94"><defs><style>.cls-1{fill:#e2bf5a}.cls-3{fill:#ef0707}.cls-4{fill:#2d0706}</style></defs><g id="Слой_2" data-name="Слой 2"><g id="Слой_1-2" data-name="Слой 1"><circle class="cls-1" cx="134.47" cy="55.94" r="44"/><path class="cls-1" d="M49.21 68.54l-.19-27 59.09 12.6 3.09 13.98-61.99.42z"/><path d="M69.92 51.38c-16 20.51-22.75 29.19-34.76 30s-12.63-9.84-16.31-5.11S-2.3 83.85.25 75.7 8 57.64 14.39 57.56a10.51 10.51 0 019.12 4.57s11.13 3.6 24.22-11.56 22.19.81 22.19.81z" fill="#353210"/><path class="cls-1" d="M62.82 72.53s-27.55 4.91-34.83-2-8.69-24.71-14.71-28.44-9.1-.05-12-7.46 18.2-17 23.24-12.9S34 48.56 41.85 54 69 48.12 72.79 57.64s-9.97 14.89-9.97 14.89z"/><path class="cls-1" d="M68.37 54.63c-1.44 33.21 13.57 35.85 13.57 35.85s4.86-1.15 4-5S67.05 62.13 75.19 53s-6.82 1.63-6.82 1.63z"/><path class="cls-3" d="M92 50.58l-5.8 17.59s-14.69 2.17-17.92 6.21S49.45 86.6 49.45 86.6 31.32 75.81 33.14 60.79s6.75-22.08 6.75-22.08a9.38 9.38 0 009 2.89c6-1.07 4.74-6.88 20-.23C89 50.14 92 50.58 92 50.58z"/><path class="cls-4" d="M167.48 22.28A107.87 107.87 0 01164 37.12c-4 12.71-11.78 28.41-25.37 24.55-22.14-6.3-35.44-2.26-40.72 2.65s-8.61 10.29-10.7-2.54 6.62-91.43 80.27-39.5z"/><path class="cls-4" d="M167.45 19.8c25.65 15.77 12 30 12 30s6-7.83-4.45-7.23-17-2-17.89-15.56 10.34-7.21 10.34-7.21zm-61.52-.39S105.72.17 92.3 0 75.73 1.6 68.43 13.58l8.11-4.82a11.75 11.75 0 01-3.29 12.93c-6.33 5.74 8.43 5.47 13-3.42s3.56 1.84 3.56 1.84l7.71-8.41s7.08 5.9 4.79 10.35l2.29-4.45z"/><path class="cls-3" d="M110.12 18.76c-.89 3.76-7 11.69-10.79 10.79S93 25.86 93.91 22.1s7.26-12.67 11-11.77a7 7 0 015.21 8.43z"/><path d="M166.72 68.43l-3.49-1.06 4.12-17.43 3.49 1.06-4.12 17.43z"/><path transform="rotate(90.01 167.795 58.305)" d="M166.16 49.64h3.28v17.35h-3.28z"/></g></g></svg>