<svg xmlns="http://www.w3.org/2000/svg" viewBox="0 0 94.21 70.21"><defs><style>.cls-1{fill:#123002;}.cls-2{fill:#007ed3;}.cls-3{fill:#daff03;}.cls-4{fill:#266d06;}.cls-5{fill:#f731f7;}.cls-6{fill:#f70606;}.cls-7{fill:#444036;}</style></defs><title>Ресурс 1</title><g id="Слой_2" data-name="Слой 2"><g id="Слой_1-2" data-name="Слой 1"><polygon class="cls-1" points="94.21 33.98 0.1 33.98 4.12 26.14 90.08 19.65 94.21 33.98"/><circle class="cls-2" cx="20.4" cy="13.54" r="4.88"/><circle class="cls-3" cx="59.46" cy="19.46" r="4.53"/><circle class="cls-2" cx="70.83" cy="14.57" r="5.36"/><circle class="cls-4" cx="44.73" cy="5.23" r="4.6"/><circle class="cls-5" cx="34.69" cy="24.36" r="5.31"/><circle class="cls-3" cx="9.37" cy="15.31" r="5.31"/><circle class="cls-6" cx="22.55" cy="21.04" r="4.9"/><circle class="cls-6" cx="50.4" cy="22.23" r="5.67"/><circle class="cls-5" cx="60.6" cy="11.2" r="4.88"/><circle class="cls-5" cx="72.53" cy="23.64" r="5.39"/><circle class="cls-6" cx="84.78" cy="11.99" r="5.23"/><circle class="cls-2" cx="37.5" cy="11.99" r="5.48"/><circle class="cls-2" cx="50.4" cy="14.57" r="3.43"/><circle class="cls-5" cx="11.55" cy="8.67" r="4.66"/><circle class="cls-3" cx="30.21" cy="16.08" r="4.09"/><circle class="cls-6" cx="22.55" cy="5.23" r="5.23"/><circle class="cls-3" cx="51.84" cy="6.75" r="4.88"/><circle class="cls-5" cx="76.19" cy="13.54" r="4.88"/><path class="cls-4" d="M.1,34,5.48,5.19,3.6,23.41l7-14.25L13.23,29,15.11,8.5,21.8,29l4.28-11.92L27.42,34s4-18.56,4-28.83a87.65,87.65,0,0,1,2.68,20.32c0,10.49,5.35,6.52,8.56-9.06s2.9-11.22,2.9-11.22,2.9,20.17.93,26.47,6.87-10.61,6.6-16.24S56.58,34,56.58,34l1.34-18.56L61.67,34,68.36,8.17,73.17,34S85.48,20.76,85.48,13.8,84.41,34,84.41,34L91.1,3.2,93,32.69l1-11.94-.48,20.56L49.63,54.89h-27Z"/><polygon class="cls-7" points="91.8 70.21 4.05 70.21 0 33.72 94.21 33.98 91.8 70.21"/></g></g></svg>