<svg xmlns="http://www.w3.org/2000/svg" viewBox="0 0 232 318"><defs><style>.cls-3{fill:#a5a5a5}</style></defs><g id="Слой_2" data-name="Слой 2"><g id="Слой_2-2" data-name="Слой 2"><path fill="#4c4848" d="M232 318l-130-60-2-202 132 48v214z"/><path fill="#302e2e" d="M232 318H8v-61h92l132 61z"/><path class="cls-3" d="M8 288h224v30H8zM23 56h11v201H23z"/><path d="M42.78 42.18c-.24-5.51-.48-12.27-.43-18.82h-.2C40.81 29.26 39 35.89 37.44 41L32 59.47h-8l-4.83-18.24c-1.38-5.18-2.89-11.82-4-17.87h-.15c-.21 6.2-.51 13.29-.78 19l-.89 17.94H3.86l3.22-48.57h13.23l4.47 16.62C26.26 34.1 27.68 40 28.7 45.6h.21a292.8 292.8 0 014.16-17.3l4.75-16.57h13l2.71 48.53h-10z" transform="translate(0 -10.48)" fill="red"/><path class="cls-3" d="M0 49h56v7H0z"/><path fill="#998d8d" d="M232 104L100 56 232 0v104z"/></g></g></svg>