<svg xmlns="http://www.w3.org/2000/svg" viewBox="0 0 101.05 181.16"><defs><style>.cls-1{fill:#e2e271}.cls-3{fill:#565656}</style></defs><g id="Слой_2" data-name="Слой 2"><g id="Слой_1-2" data-name="Слой 1"><path d="M43.05 116.16c0 26 0 37-9 45s-16 0-16 6-12 19-15 11-5-19 0-23a10.49 10.49 0 0110-2s11-4 12-24 18-13 18-13z"/><circle class="cls-1" cx="54.05" cy="44.16" r="44"/><path d="M40.14 91c-30.89 12.27-27.16 27-27.16 27s3 4 6.21 1.54 13.57-26.72 25.2-23S40.14 91 40.14 91z" fill="#848238"/><path d="M54.05 129.16h-27l13-59 14-3v62z"/><path class="cls-3" d="M54.81 116.23s27.42 5.61 31.64 14.71-1.06 26.17 3.16 31.86 8.44 3.42 8.44 11.39-23.2 9.1-26.37 3.41 1.06-28.45-4.22-36.42-27.41-4.55-27.41-14.79 14.76-10.16 14.76-10.16z"/><path class="cls-1" d="M48.05 103.16c32 9 38-5 38-5s0-5-4-5-27 13-34 3 0 7 0 7z"/><circle cx="63.55" cy="62.66" r="23.5" fill="#282828"/><path d="M27.05 78.88S2.63 61.29 12.84 28.72 58.46.16 58.46.16s28.22 3.15 36.41 27.57L65.05 51.16s-7-16-16-6 20.42 40.21 20.42 40.21-25.42 5.24-42.42-6.49z"/><path d="M95.05 25.16s5 20 6 31c0 0-23 15-27 9s-9-20-9-20z" fill="#686867"/><path class="cls-3" d="M54.05 105.2s15 4.39 24 0 0-14 0-14-20 6.14-24 6.14 0 7.86 0 7.86z"/><path d="M33.05 77.16s-10 48-6 50 10.69 10.1 16 6c22-17 14-56 14-56z"/><path d="M33.05 94.16s-17 7-20 12l8 11s9-13 12-13 0-10 0-10z"/></g></g></svg>