<svg xmlns="http://www.w3.org/2000/svg" viewBox="0 0 102 180.39"><defs><style>.cls-1{fill:#e2e271}.cls-3{fill:#565656}</style></defs><g id="Слой_2" data-name="Слой 2"><g id="Слой_1-2" data-name="Слой 1"><circle class="cls-1" cx="56" cy="44.16" r="44"/><path d="M45.7 89.32c-33.18 2-34.24 17.23-34.24 17.23s1.64 4.72 5.42 3.4S38.1 88.79 48 95.93s-2.3-6.61-2.3-6.61z" fill="#848238"/><path class="cls-1" d="M56 129.16H29l13-59 14-3v62z"/><path class="cls-3" d="M35 110.3c20.4 16.12 29 22.94 29.73 35s-9.92 12.55-5.21 16.27 7.46 21.2-.67 18.59-18-7.86-18-14.26a10.49 10.49 0 014.63-9.09s3.6-11.14-11.48-24.32 1-22.19 1-22.19z"/><path d="M55.46 106.53s17.72 21.66 15.24 31.39-17.35 19.63-17.7 26.7 4.39 8-.64 14.15-23.74-7.59-22.6-14 18.78-21.39 19.73-30.9S31.13 113 37.6 105.08s17.86 1.45 17.86 1.45z"/><path class="cls-1" d="M49.19 94.32C69.94 120.28 83 112.41 83 112.41s2.92-4.06-.33-6.4-29.52-5.17-29.38-17.38-4.1 5.69-4.1 5.69z"/><circle cx="64.5" cy="62.66" r="23.5" fill="#282828"/><path d="M28 78.88S3.58 61.29 13.79 28.72 59.41.16 59.41.16s28.23 3.15 36.41 27.57L66 51.16s-7-16-16-6 20.43 40.21 20.43 40.21S45 90.61 28 78.88z"/><path d="M96 25.16s5 20 6 31c0 0-23 15-27 9s-9-20-9-20z" fill="#686867"/><path class="cls-3" d="M51 97.75s9 12.79 18.75 15 8.77-11 8.77-11S59.1 94.07 56 91.57s-5 6.18-5 6.18z"/><path d="M35 86.93s-17 7-20 12l8 11s9-13 12-13 0-10 0-10z"/><path d="M34.45 76.16s-10 48-6 50 10.69 10.1 16 6c22-17 14-56 14-56z"/><path fill="none" d="M0 4.16h11v176H0z"/></g></g></svg>