<svg id="Слой_1" data-name="Слой 1" xmlns="http://www.w3.org/2000/svg" viewBox="0 0 106.19 189"><defs><style>.cls-1{fill:#e2e271}.cls-3{fill:#565656}</style></defs><ellipse class="cls-1" cx="52.34" cy="46.26" rx="51.51" ry="46.1"/><path d="M55.08 94.58c-38.84 2.13-40.08 18-40.08 18s1.92 5 6.34 3.57S46.19 94 57.78 101.51s-2.7-6.93-2.7-6.93z" transform="translate(-14.81 -1)" fill="#848238"/><path class="cls-1" d="M52.34 135.32H20.73L35.95 73.5l16.39-3.14v64.96z"/><path class="cls-3" d="M42.53 116.57c23.88 16.89 34 24 34.8 36.63s-11.62 13.15-6.1 17.05 8.74 22.2-.79 19.47-21.08-8.23-21.13-14.94a10.89 10.89 0 015.43-9.52s4.31-11.64-13.34-25.45 1.13-23.24 1.13-23.24z" transform="translate(-14.81 -1)"/><path d="M66.52 112.61s20.74 22.7 17.84 32.89-20.31 20.56-20.69 28 5.13 8.35-.76 14.82-27.79-8-26.45-14.67 22-22.41 23.09-32.37S38 119.42 45.6 111.1s20.92 1.51 20.92 1.51z" transform="translate(-14.81 -1)"/><path class="cls-1" d="M59.17 99.82c24.3 27.2 39.56 19 39.56 19s3.42-4.25-.39-6.7S63.78 106.65 64 93.86s-4.83 5.96-4.83 5.96z" transform="translate(-14.81 -1)"/><ellipse cx="62.29" cy="65.65" rx="27.51" ry="24.62" fill="#282828"/><path d="M34.36 83.65S5.77 65.21 17.73 31.09 71.14 1.16 71.14 1.16s33.05 3.31 42.62 28.9L78.85 54.6s-8.19-16.77-18.73-6.29S84 90.44 84 90.44s-29.73 5.5-49.64-6.79z" transform="translate(-14.81 -1)"/><path d="M114 27.36s5.85 21 7 32.48c0 0-26.93 15.71-31.61 9.42s-10.54-21-10.54-21z" transform="translate(-14.81 -1)" fill="#686867"/><path class="cls-3" d="M61.34 103.41s10.51 13.41 22 15.7 10.27-11.5 10.27-11.5-22.78-8-26.44-10.67-5.83 6.47-5.83 6.47z" transform="translate(-14.81 -1)"/><path d="M42.5 92.07s-19.9 7.34-23.41 12.58l9.36 11.52S39 102.55 42.5 102.55s0-10.48 0-10.48z" transform="translate(-14.81 -1)"/><path d="M41.92 80.79s-11.71 50.29-7 52.39 12.52 10.58 18.73 6.28C79.38 121.65 70 80.79 70 80.79z" transform="translate(-14.81 -1)"/></svg>