<svg xmlns="http://www.w3.org/2000/svg" viewBox="0 0 98.7 180.39"><defs><style>.cls-1{fill:#e2e271}.cls-3{fill:#565656}</style></defs><g id="Слой_2" data-name="Слой 2"><g id="Слой_1-2" data-name="Слой 1"><ellipse class="cls-1" cx="48.65" cy="44.16" rx="47.88" ry="44"/><path d="M37.43 89.32C1.33 91.35.18 106.55.18 106.55S2 111.27 6.08 110s23.09-21.16 33.86-14-2.51-6.68-2.51-6.68z" fill="#848238"/><path class="cls-1" d="M48.65 129.16H19.27l14.14-59 15.24-3v62z"/><path class="cls-3" d="M25.77 110.3c22.19 16.12 31.59 22.94 32.34 35s-10.79 12.55-5.67 16.27 8.13 21.2-.73 18.59-19.59-7.86-19.64-14.26a10.4 10.4 0 015-9.09s4-11.11-12.39-24.29 1.09-22.22 1.09-22.22z"/><path d="M48.06 106.53s19.28 21.66 16.59 31.39-18.88 19.63-19.23 26.7 4.77 8-.71 14.15-25.83-7.59-24.59-14 20.45-21.39 21.47-30.9-20-20.84-13-28.79 19.47 1.45 19.47 1.45z"/><path class="cls-1" d="M41.24 94.32C63.82 120.28 78 112.41 78 112.41s3.17-4.06-.37-6.4-32.12-5.17-32-17.38-4.39 5.69-4.39 5.69z"/><ellipse cx="57.9" cy="62.66" rx="25.57" ry="23.5" fill="#282828"/><path d="M18.18 78.88S-8.39 61.29 2.72 28.72 52.36.16 52.36.16 83.08 3.31 92 27.73L59.53 51.16s-7.62-16-17.41-6 22.23 40.21 22.23 40.21-27.67 5.24-46.17-6.49z"/><path d="M92.18 25.16s5.44 20 6.52 31c0 0-25 15-29.38 9s-9.79-20-9.79-20z" fill="#686867"/><path class="cls-3" d="M43.25 97.75s9.77 12.79 20.41 15 9.54-11 9.54-11S52 94.07 48.62 91.57s-5.37 6.18-5.37 6.18z"/><path d="M25.74 86.93s-18.5 7-21.76 12l8.7 11s9.8-13 13.06-13 0-10 0-10z"/><path d="M25.2 76.16s-10.88 48-6.53 50 11.63 10.1 17.41 6c23.94-17 15.24-56 15.24-56z"/></g></g></svg>