<svg xmlns="http://www.w3.org/2000/svg" viewBox="0 0 90.7 180.39"><defs><style>.cls-1{fill:#e2e271}.cls-3{fill:#565656}</style></defs><g id="Слой_2" data-name="Слой 2"><g id="Слой_1-2" data-name="Слой 1"><circle class="cls-1" cx="44.7" cy="44.16" r="44"/><path d="M34.4 89.32C1.22 91.35.16 106.55.16 106.55s1.65 4.72 5.42 3.4 21.22-21.16 31.12-14-2.3-6.63-2.3-6.63z" fill="#848238"/><path class="cls-1" d="M44.7 129.16h-27l13-59 14-3v62z"/><path class="cls-3" d="M23.68 110.3c20.4 16.12 29 22.94 29.72 35s-9.92 12.55-5.21 16.27 7.47 21.2-.67 18.59-18-7.86-18-14.26a10.49 10.49 0 014.63-9.09s3.68-11.11-11.39-24.29.92-22.22.92-22.22z"/><path d="M44.17 106.53s17.72 21.66 15.24 31.39-17.35 19.63-17.67 26.7 4.38 8-.65 14.15-23.74-7.59-22.6-14 18.79-21.39 19.73-30.9S19.84 113 26.31 105.08s17.86 1.45 17.86 1.45z"/><path class="cls-1" d="M37.9 94.32c20.75 26 33.79 18.09 33.79 18.09s2.91-4.06-.34-6.4S41.84 100.84 42 88.63s-4.1 5.69-4.1 5.69z"/><circle cx="53.2" cy="62.66" r="23.5" fill="#282828"/><path d="M16.7 78.88S-7.71 61.29 2.5 28.72 48.12.16 48.12.16s28.22 3.15 36.4 27.57L54.7 51.16s-7-16-16-6 20.43 40.21 20.43 40.21-25.43 5.24-42.43-6.49z"/><path d="M84.7 25.16s5 20 6 31c0 0-23 15-27 9s-9-20-9-20z" fill="#686867"/><path class="cls-3" d="M39.75 97.75s9 12.79 18.75 15 8.77-11 8.77-11-19.46-7.68-22.59-10.18-4.93 6.18-4.93 6.18z"/><path d="M23.66 86.93s-17 7-20 12l8 11s9-13 12-13 0-10 0-10z"/><path d="M23.16 76.16s-10 48-6 50 10.69 10.1 16 6c22-17 14-56 14-56z"/></g></g></svg>