<svg xmlns="http://www.w3.org/2000/svg" viewBox="0 0 100.05 181"><defs><style>.cls-1{fill:#e2e271}.cls-3{fill:#565656}</style></defs><g id="Слой_2" data-name="Слой 2"><g id="Слой_1-2" data-name="Слой 1"><circle class="cls-1" cx="54.05" cy="44" r="44"/><path d="M48.05 103c32 9 38-5 38-5s0-5-4-5-27 13-34 3 0 7 0 7z" fill="#848238"/><path class="cls-1" d="M54.05 129h-27l13-59 14-3v62z"/><path d="M54.81 116.07s27.42 5.61 31.64 14.71-1.06 26.22 3.16 31.87 8.44 3.41 8.44 11.38-23.2 9.1-26.37 3.41S72.74 149 67.46 141s-27.41-4.56-27.41-14.8 14.76-10.13 14.76-10.13z"/><path class="cls-3" d="M43.05 116c0 26 0 37-9 45s-16 0-16 6-12 19-15 11-5-19 0-23a10.49 10.49 0 0110-2s11-4 12-24 18-13 18-13z"/><path class="cls-1" d="M40.14 90.85c-30.89 12.27-27.16 27-27.16 27s3 4 6.21 1.55 13.57-26.72 25.2-23-4.25-5.55-4.25-5.55z"/><circle cx="62.55" cy="63.5" r="23.5" fill="#282828"/><path d="M26.05 79.73S1.63 62.13 11.84 29.57 57.46 1 57.46 1s28.22 3.15 36.41 27.58L64.05 52s-7-16-16-6 20.42 40.21 20.42 40.21-25.42 5.25-42.42-6.48z"/><path d="M94.05 26s5 20 6 31c0 0-23 15-27 9s-9-20-9-20z" fill="#686867"/><path d="M54 106.1s15 4.39 24 0 0-14 0-14-20 6.1-24 6.1 0 7.9 0 7.9z"/><path class="cls-3" d="M33 93.77s-17 7-20 12l8 11s9-13 12-13 0-10 0-10z"/><path d="M33.5 79s-10 48-6 50 10.69 10.1 16 6c22-17 14-56 14-56z"/></g></g></svg>