<svg xmlns="http://www.w3.org/2000/svg" viewBox="0 0 183.1 340.14"><defs><style>.cls-1{fill:#e2e271}.cls-3{fill:#565656}</style></defs><g id="Слой_2" data-name="Слой 2"><g id="Слой_1-2" data-name="Слой 1"><path d="M86 212.93c7.3 46.65 10.39 66.38-5 83.51s-31.44 4.92-29.76 15.68-18.34 37.79-26.48 24.35-15.16-32.55-6.46-41.26a22.52 22.52 0 0119.09-6.67s20.5-10.54 16.85-46.75S86 212.93 86 212.93z"/><ellipse class="cls-1" cx="87.36" cy="80.35" rx="87.52" ry="79.91" transform="rotate(-8.89 87.387 80.367)"/><path d="M73.19 151.7c-57.27 31.52-45.79 56.87-45.79 56.87s7.08 6.2 12.65.86 19.15-52.12 43.05-49.06-9.91-8.67-9.91-8.67z" fill="#848238"/><path d="M111.23 232.87l-53.06 8.3 8.98-109.86 26.67-9.69 17.41 111.25z"/><path class="cls-3" d="M95.6 199.25s51.5 20.69 56.49 38.82-11.39 47.06-5.19 59 15.25 9.42 12.41 23.87-48.52 7.61-52.66-3.92 12.2-51.19 4.75-67.66S59.52 230.59 63.17 212s32.43-12.75 32.43-12.75z"/><path class="cls-1" d="M90.71 167.73c51.14 41.28 72.55 23.1 72.55 23.1s3.76-8.26-3.48-11.56-58.66-.8-63.79-23.1-5.28 11.56-5.28 11.56z"/><ellipse cx="111.23" cy="110.63" rx="46.75" ry="42.68" transform="rotate(-8.89 111.3 110.698)" fill="#282828"/><path d="M44.05 151S-8.88 126.91 2 65.34 83.68.05 83.68.05 140-3 163 38.33l-52 51.2S92.7 63 77.82 83.69s51.44 65.87 51.44 65.87-48.51 17.23-85.21 1.44z"/><path d="M162.6 33.65S178.05 68 183.1 87.43c0 0-41 34-50.54 24.45s-23.3-33.11-23.3-33.11z" fill="#686867"/><path class="cls-3" d="M100 176.07s23.84 19.63 43.43 19.81 10.59-23.22 10.59-23.22-40.8-6.35-48.02-9.66-6 13.07-6 13.07z"/><path d="M55.36 146s-6.18 89.21 2.25 91.56 23.85 14.84 33.13 5.85c38.46-37.27 11.78-104.79 11.78-104.79z"/><path d="M60.13 159.53s-31.44 17.79-35.93 27.68L43 204.49s14-26.1 19.93-27-2.8-17.96-2.8-17.96z"/></g></g></svg>