<svg xmlns="http://www.w3.org/2000/svg" viewBox="0 0 104 185.34"><defs><style>.cls-1{fill:#e2e271}</style></defs><g id="Слой_2" data-name="Слой 2"><g id="Слой_1-2" data-name="Слой 1"><path class="cls-1" d="M55.71 89.33c30.89 12.28 27.16 27.05 27.16 27.05s-3 4-6.21 1.54-13.57-26.72-25.2-23 4.25-5.59 4.25-5.59z"/><circle class="cls-1" cx="54" cy="48.34" r="44"/><path class="cls-1" d="M60 133.34H33l13-59 14-3v62z"/><path d="M60.76 120.42S88.18 126 92.4 135.13 91.35 161.3 95.56 167s8.44 3.42 8.44 11.38-23.2 9.11-26.36 3.42 1-28.46-4.22-36.42S46 140.82 46 130.57s14.76-10.15 14.76-10.15z"/><path class="cls-1" d="M40.09 89.19c-30.89 12.28-27.16 27-27.16 27s3 4 6.22 1.55 13.56-26.72 25.19-23-4.25-5.55-4.25-5.55z"/><path d="M60.31 91.1s17 7 20 12l-8 11s-9-13-12-13 0-10 0-10z"/><path d="M36.45 83s-11.9 50-1.9 52c4.38.88 27.86 4.61 29-2 5-29-3.1-50-3.1-50z"/><circle cx="50.55" cy="47" r="47"/><circle class="cls-1" cx="51.05" cy="64.5" r="23.5"/><path d="M81.55 30s11 21.9 6 23.9c0 0-68 6-72 0s3-23.9 3-23.9z" fill="#686867"/><path d="M43.24 120.35S15.82 126 11.6 135.06s1.05 26.18-3.16 31.87S0 170.34 0 178.31s23.2 9.1 26.36 3.41-1.05-28.45 4.22-36.41S58 140.75 58 130.51s-14.76-10.16-14.76-10.16zm-2.36-46.82c-.77-2.19.84-4.13 2.82-4.93a12 12 0 016.71-.4 15.09 15.09 0 0110.28 7.6c.91 1.71 3.5.19 2.59-1.51A18 18 0 0049.5 65a13 13 0 00-8.5 1.6c-2.48 1.65-4 4.74-3 7.69.63 1.81 3.53 1 2.89-.8zm-5.22 16.12s-15.79 9.41-18 14.8l9.52 9.71s7-14.18 10-14.61-1.52-9.9-1.52-9.9z"/></g></g></svg>